# Blender 4.1.0
# www.blender.org
mtllib ammoboxps1.mtl
o Cube.001
v -0.202336 -0.397798 0.678761
v -0.202336 -0.397798 -0.678761
v 0.202336 -0.397798 0.678761
v 0.202336 -0.397798 -0.678761
v -0.202336 0.299865 0.678761
v -0.202336 0.299865 -0.678761
v 0.202336 0.299865 -0.678761
v 0.202336 0.299865 0.678761
v -0.213060 0.299865 0.689485
v -0.211092 0.406554 0.687517
v -0.211092 0.406554 -0.687517
v 0.211092 0.406554 -0.687517
v 0.211092 0.406554 0.687517
v -0.213060 0.299865 -0.689485
v 0.213060 0.299865 -0.689485
v 0.213060 0.299865 0.689485
vn -0.0000 -1.0000 -0.0000
vn -0.0000 -0.0000 1.0000
vn 1.0000 -0.0000 -0.0000
vn -0.0000 -0.0000 -1.0000
vn -1.0000 -0.0000 -0.0000
vn -0.9998 0.0184 -0.0000
vn -0.0000 0.0184 -0.9998
vn 0.9998 0.0184 -0.0000
vn -0.0000 0.0184 0.9998
vn -0.0000 1.0000 -0.0000
vt 0.031371 0.417549
vt 0.301690 0.417549
vt 0.307785 0.417549
vt 0.025275 0.417549
vt 0.301690 0.417548
vt 0.031371 0.417548
vt 0.025275 0.417548
vt 0.307785 0.417548
vt 0.362453 0.912666
vt 0.945416 0.912666
vt 0.950021 0.912666
vt 0.357848 0.912666
vt 0.031371 0.030688
vt 0.301690 0.030688
vt 0.301690 0.030688
vt 0.031371 0.030688
vt 0.301690 0.021000
vt 0.031371 0.021000
vt 0.945416 0.486337
vt 0.362453 0.486337
vt 0.031371 0.021000
vt 0.301690 0.021000
vt 0.950021 0.912666
vt 0.949176 0.958482
vt 0.358693 0.958482
vt 0.357848 0.912666
vt 0.026394 0.478190
vt 0.306666 0.478190
vt 0.949176 0.958482
vt 0.358693 0.958482
vt 0.306666 0.478190
vt 0.026394 0.478190
vt 0.310809 0.964714
vt 0.044521 0.964714
vt 0.044521 0.542330
vt 0.310809 0.542330
s 0
usemtl Material.009
f 5/1/1 8/2/1 16/3/1 9/4/1
f 7/5/1 6/6/1 14/7/1 15/8/1
f 8/9/1 7/10/1 15/11/1 16/12/1
f 2/13/1 4/14/1 3/15/1 1/16/1
f 6/10/1 5/9/1 9/12/1 14/11/1
f 3/17/2 8/2/2 5/1/2 1/18/2
f 4/19/3 7/10/3 8/9/3 3/20/3
f 2/21/4 6/6/4 7/5/4 4/22/4
f 1/19/5 5/10/5 6/9/5 2/20/5
f 9/23/6 10/24/6 11/25/6 14/26/6
f 14/7/7 11/27/7 12/28/7 15/8/7
f 15/11/8 12/29/8 13/30/8 16/12/8
f 16/3/9 13/31/9 10/32/9 9/4/9
f 12/33/10 11/34/10 10/35/10 13/36/10
